<?xml version="1.0" standalone="no"?>
<!DOCTYPE svg PUBLIC "-//W3C//DTD SVG 20010904//EN"
 "http://www.w3.org/TR/2001/REC-SVG-20010904/DTD/svg10.dtd">
<svg version="1.0" xmlns="http://www.w3.org/2000/svg"
 width="300.000000pt" height="300.000000pt" viewBox="0 0 300.000000 300.000000"
 preserveAspectRatio="xMidYMid meet">

<g transform="translate(0.000000,300.000000) scale(0.100000,-0.100000)"
fill="#000000" stroke="none">
<path d="M340 2380 l0 -280 280 0 280 0 0 280 0 280 -280 0 -280 0 0 -280z
m480 0 l0 -200 -200 0 -200 0 0 200 0 200 200 0 200 0 0 -200z"/>
<path d="M500 2380 l0 -120 120 0 120 0 0 120 0 120 -120 0 -120 0 0 -120z"/>
<path d="M1060 2620 l0 -40 40 0 40 0 0 -40 0 -40 -80 0 -80 0 0 -40 0 -40 40
0 40 0 0 -40 0 -40 40 0 40 0 0 -40 0 -40 -40 0 -40 0 0 -40 0 -40 -40 0 -40
0 0 -80 0 -80 -160 0 -160 0 0 -40 0 -40 40 0 40 0 0 -40 0 -40 -40 0 -40 0 0
-40 0 -40 40 0 40 0 0 -40 0 -40 40 0 40 0 0 -40 0 -40 40 0 40 0 0 -40 0 -40
-80 0 -80 0 0 40 0 40 -40 0 -40 0 0 -40 0 -40 40 0 40 0 0 -40 0 -40 -80 0
-80 0 0 40 0 40 -80 0 -80 0 0 -40 0 -40 -40 0 -40 0 0 -80 0 -80 80 0 80 0 0
-80 0 -80 -40 0 -40 0 0 40 0 40 -40 0 -40 0 0 -40 0 -40 40 0 40 0 0 -40 0
-40 -40 0 -40 0 0 -40 0 -40 40 0 40 0 0 40 0 40 40 0 40 0 0 40 0 40 80 0 80
0 0 -40 0 -40 80 0 80 0 0 -40 0 -40 80 0 80 0 0 -160 0 -160 40 0 40 0 0 -40
0 -40 -40 0 -40 0 0 -120 0 -120 120 0 120 0 0 40 0 40 40 0 40 0 0 -40 0 -40
40 0 40 0 0 40 0 40 -40 0 -40 0 0 40 0 40 -120 0 -120 0 0 40 0 40 120 0 120
0 0 80 0 80 80 0 80 0 0 -80 0 -80 -40 0 -40 0 0 -40 0 -40 40 0 40 0 0 40 0
40 40 0 40 0 0 40 0 40 40 0 40 0 0 -40 0 -40 40 0 40 0 0 -80 0 -80 -40 0
-40 0 0 40 0 40 -40 0 -40 0 0 -80 0 -80 120 0 120 0 0 120 0 120 -40 0 -40 0
0 40 0 40 80 0 80 0 0 -160 0 -160 200 0 200 0 0 80 0 80 80 0 80 0 0 40 0 40
80 0 80 0 0 -40 0 -40 -40 0 -40 0 0 -80 0 -80 80 0 80 0 0 40 0 40 -40 0 -40
0 0 40 0 40 40 0 40 0 0 120 0 120 -40 0 -40 0 0 40 0 40 40 0 40 0 0 80 0 80
-120 0 -120 0 0 -40 0 -40 -40 0 -40 0 0 80 0 80 40 0 40 0 0 40 0 40 -80 0
-80 0 0 40 0 40 -40 0 -40 0 0 40 0 40 40 0 40 0 0 40 0 40 -120 0 -120 0 0
-40 0 -40 -40 0 -40 0 0 -40 0 -40 40 0 40 0 0 40 0 40 40 0 40 0 0 -120 0
-120 -80 0 -80 0 0 40 0 40 -160 0 -160 0 0 -40 0 -40 -40 0 -40 0 0 -40 0
-40 80 0 80 0 0 -80 0 -80 -40 0 -40 0 0 -40 0 -40 -40 0 -40 0 0 80 0 80 -40
0 -40 0 0 40 0 40 -40 0 -40 0 0 40 0 40 -40 0 -40 0 0 40 0 40 -40 0 -40 0 0
40 0 40 40 0 40 0 0 80 0 80 80 0 80 0 0 -80 0 -80 -40 0 -40 0 0 -40 0 -40
40 0 40 0 0 40 0 40 80 0 80 0 0 40 0 40 40 0 40 0 0 -40 0 -40 80 0 80 0 0
40 0 40 -40 0 -40 0 0 80 0 80 40 0 40 0 0 40 0 40 -40 0 -40 0 0 -40 0 -40
-40 0 -40 0 0 80 0 80 40 0 40 0 0 80 0 80 -40 0 -40 0 0 -40 0 -40 -40 0 -40
0 0 40 0 40 -40 0 -40 0 0 -40 0 -40 40 0 40 0 0 -40 0 -40 -40 0 -40 0 0 -40
0 -40 -40 0 -40 0 0 40 0 40 -40 0 -40 0 0 40 0 40 -40 0 -40 0 0 40 0 40 -40
0 -40 0 0 -40 0 -40 40 0 40 0 0 -40 0 -40 -40 0 -40 0 0 -80 0 -80 -40 0 -40
0 0 -40 0 -40 -40 0 -40 0 0 80 0 80 40 0 40 0 0 40 0 40 -40 0 -40 0 0 40 0
40 -40 0 -40 0 0 40 0 40 -40 0 -40 0 0 40 0 40 -40 0 -40 0 0 40 0 40 80 0
80 0 0 -40 0 -40 40 0 40 0 0 -40 0 -40 40 0 40 0 0 40 0 40 80 0 80 0 0 80 0
80 80 0 80 0 0 -80 0 -80 -40 0 -40 0 0 -40 0 -40 40 0 40 0 0 40 0 40 80 0
80 0 0 80 0 80 40 0 40 0 0 -80 0 -80 80 0 80 0 0 40 0 40 -40 0 -40 0 0 40 0
40 80 0 80 0 0 -120 0 -120 -40 0 -40 0 0 -40 0 -40 80 0 80 0 0 -40 0 -40
-40 0 -40 0 0 -80 0 -80 40 0 40 0 0 40 0 40 80 0 80 0 0 40 0 40 40 0 40 0 0
120 0 120 -40 0 -40 0 0 80 0 80 -120 0 -120 0 0 40 0 40 40 0 40 0 0 120 0
120 -80 0 -80 0 0 40 0 40 40 0 40 0 0 120 0 120 -80 0 -80 0 0 -80 0 -80 40
0 40 0 0 -40 0 -40 -40 0 -40 0 0 -40 0 -40 -40 0 -40 0 0 -80 0 -80 -40 0
-40 0 0 -80 0 -80 -40 0 -40 0 0 80 0 80 -40 0 -40 0 0 40 0 40 40 0 40 0 0
40 0 40 40 0 40 0 0 40 0 40 40 0 40 0 0 120 0 120 -40 0 -40 0 0 -40 0 -40
-80 0 -80 0 0 40 0 40 -80 0 -80 0 0 -40 0 -40 -80 0 -80 0 0 40 0 40 -40 0
-40 0 0 -40z m400 -80 l0 -40 -40 0 -40 0 0 40 0 40 40 0 40 0 0 -40z m-160
-80 l0 -40 40 0 40 0 0 -40 0 -40 40 0 40 0 0 -40 0 -40 -40 0 -40 0 0 -40 0
-40 40 0 40 0 0 -40 0 -40 -40 0 -40 0 0 40 0 40 -40 0 -40 0 0 -80 0 -80 -40
0 -40 0 0 80 0 80 -40 0 -40 0 0 -40 0 -40 -40 0 -40 0 0 40 0 40 40 0 40 0 0
40 0 40 40 0 40 0 0 40 0 40 40 0 40 0 0 40 0 40 -40 0 -40 0 0 40 0 40 40 0
40 0 0 -40z m320 0 l0 -40 -40 0 -40 0 0 40 0 40 40 0 40 0 0 -40z m240 -240
l0 -40 40 0 40 0 0 -40 0 -40 -40 0 -40 0 0 40 0 40 -40 0 -40 0 0 -40 0 -40
-40 0 -40 0 0 40 0 40 40 0 40 0 0 40 0 40 40 0 40 0 0 -40z m-720 -280 l0
-80 -40 0 -40 0 0 80 0 80 40 0 40 0 0 -80z m960 -40 l0 -40 -40 0 -40 0 0 40
0 40 40 0 40 0 0 -40z m-1280 -80 l0 -40 40 0 40 0 0 -40 0 -40 -40 0 -40 0 0
40 0 40 -40 0 -40 0 0 40 0 40 40 0 40 0 0 -40z m1360 -80 l0 -40 -80 0 -80 0
0 40 0 40 80 0 80 0 0 -40z m-720 -240 l0 -40 -40 0 -40 0 0 40 0 40 40 0 40
0 0 -40z m-960 -80 l0 -40 40 0 40 0 0 -40 0 -40 -40 0 -40 0 0 40 0 40 -40 0
-40 0 0 40 0 40 40 0 40 0 0 -40z m480 0 l0 -40 40 0 40 0 0 -40 0 -40 -40 0
-40 0 0 -40 0 -40 40 0 40 0 0 -40 0 -40 80 0 80 0 0 -40 0 -40 40 0 40 0 0
-40 0 -40 -40 0 -40 0 0 -40 0 -40 -40 0 -40 0 0 80 0 80 -40 0 -40 0 0 -40 0
-40 -40 0 -40 0 0 40 0 40 -80 0 -80 0 0 40 0 40 80 0 80 0 0 40 0 40 -80 0
-80 0 0 40 0 40 80 0 80 0 0 40 0 40 -80 0 -80 0 0 40 0 40 80 0 80 0 0 -40z
m320 0 l0 -40 -40 0 -40 0 0 -80 0 -80 -40 0 -40 0 0 80 0 80 40 0 40 0 0 40
0 40 40 0 40 0 0 -40z m320 0 l0 -40 -40 0 -40 0 0 40 0 40 40 0 40 0 0 -40z
m-880 -160 l0 -120 -40 0 -40 0 0 120 0 120 40 0 40 0 0 -120z m1520 -160 l0
-40 -40 0 -40 0 0 40 0 40 40 0 40 0 0 -40z m-320 -80 l0 -40 -40 0 -40 0 0
-40 0 -40 -40 0 -40 0 0 80 0 80 80 0 80 0 0 -40z m320 -160 l0 -120 -120 0
-120 0 0 120 0 120 120 0 120 0 0 -120z m-800 0 l0 -40 -40 0 -40 0 0 40 0 40
40 0 40 0 0 -40z m1040 -40 l0 -80 40 0 40 0 0 -40 0 -40 -80 0 -80 0 0 -40 0
-40 -40 0 -40 0 0 80 0 80 40 0 40 0 0 80 0 80 40 0 40 0 0 -80z m-1200 -40
l0 -40 -80 0 -80 0 0 -40 0 -40 -40 0 -40 0 0 80 0 80 120 0 120 0 0 -40z
m640 -40 l0 -80 120 0 120 0 0 -80 0 -80 -80 0 -80 0 0 40 0 40 -40 0 -40 0 0
40 0 40 -40 0 -40 0 0 40 0 40 -40 0 -40 0 0 40 0 40 80 0 80 0 0 -80z"/>
<path d="M2100 860 l0 -40 40 0 40 0 0 40 0 40 -40 0 -40 0 0 -40z"/>
<path d="M2100 2380 l0 -280 280 0 280 0 0 280 0 280 -280 0 -280 0 0 -280z
m480 0 l0 -200 -200 0 -200 0 0 200 0 200 200 0 200 0 0 -200z"/>
<path d="M2260 2380 l0 -120 120 0 120 0 0 120 0 120 -120 0 -120 0 0 -120z"/>
<path d="M340 1900 l0 -120 80 0 80 0 0 -40 0 -40 40 0 40 0 0 40 0 40 -40 0
-40 0 0 80 0 80 40 0 40 0 0 40 0 40 -120 0 -120 0 0 -120z"/>
<path d="M2420 1980 l0 -40 -40 0 -40 0 0 -40 0 -40 40 0 40 0 0 -40 0 -40 40
0 40 0 0 -80 0 -80 40 0 40 0 0 -40 0 -40 -40 0 -40 0 0 -120 0 -120 -40 0
-40 0 0 200 0 200 -40 0 -40 0 0 -80 0 -80 -40 0 -40 0 0 -40 0 -40 40 0 40 0
0 -120 0 -120 80 0 80 0 0 -80 0 -80 40 0 40 0 0 40 0 40 40 0 40 0 0 120 0
120 -40 0 -40 0 0 40 0 40 40 0 40 0 0 120 0 120 -40 0 -40 0 0 40 0 40 40 0
40 0 0 80 0 80 -40 0 -40 0 0 -40 0 -40 -80 0 -80 0 0 40 0 40 40 0 40 0 0 40
0 40 -40 0 -40 0 0 -40z m160 -720 l0 -40 -40 0 -40 0 0 40 0 40 40 0 40 0 0
-40z"/>
<path d="M340 1660 l0 -40 40 0 40 0 0 40 0 40 -40 0 -40 0 0 -40z"/>
<path d="M340 620 l0 -280 280 0 280 0 0 280 0 280 -280 0 -280 0 0 -280z
m480 0 l0 -200 -200 0 -200 0 0 200 0 200 200 0 200 0 0 -200z"/>
<path d="M500 620 l0 -120 120 0 120 0 0 120 0 120 -120 0 -120 0 0 -120z"/>
</g>
</svg>
